<?xml version="1.0" encoding="UTF-8"?>
<svg xmlns="http://www.w3.org/2000/svg" xmlns:xlink="http://www.w3.org/1999/xlink" width="11pt" height="12pt" viewBox="0 0 11 12" version="1.1">
<g id="surface1">
<path style=" stroke:none;fill-rule:nonzero;fill:#516278;fill-opacity:1;" d="M 4.824219 1.480469 L 5.386719 0.988281 C 5.625 0.78125 6.011719 0.78125 6.246094 0.988281 L 11.167969 5.296875 C 11.40625 5.503906 11.40625 5.839844 11.167969 6.042969 L 6.246094 10.351562 C 6.007812 10.558594 5.621094 10.558594 5.386719 10.351562 L 4.824219 9.859375 C 4.585938 9.648438 4.589844 9.308594 4.832031 9.101562 L 7.886719 6.554688 L 0.609375 6.554688 C 0.269531 6.554688 0 6.320312 0 6.027344 L 0 5.316406 C 0 5.023438 0.269531 4.785156 0.609375 4.785156 L 7.886719 4.785156 L 4.832031 2.238281 C 4.585938 2.035156 4.582031 1.691406 4.824219 1.480469 Z M 4.824219 1.480469 "/>
</g>
</svg>
