<svg xmlns="http://www.w3.org/2000/svg" xmlns:xlink="http://www.w3.org/1999/xlink" width="11pt" height="12pt" viewBox="0 0 11 12" version="1.1">
<g id="surface1">
<path style=" stroke:none;fill-rule:nonzero;fill:#9a9a9a;fill-opacity:1;" d="M 0 10.875 C 0 11.496094 0.527344 12 1.179688 12 L 9.820312 12 C 10.472656 12 11 11.496094 11 10.875 L 11 4.5 L 0 4.5 Z M 7.855469 6.28125 C 7.855469 6.125 7.988281 6 8.152344 6 L 9.132812 6 C 9.296875 6 9.429688 6.125 9.429688 6.28125 L 9.429688 7.21875 C 9.429688 7.375 9.296875 7.5 9.132812 7.5 L 8.152344 7.5 C 7.988281 7.5 7.855469 7.375 7.855469 7.21875 Z M 7.855469 9.28125 C 7.855469 9.125 7.988281 9 8.152344 9 L 9.132812 9 C 9.296875 9 9.429688 9.125 9.429688 9.28125 L 9.429688 10.21875 C 9.429688 10.375 9.296875 10.5 9.132812 10.5 L 8.152344 10.5 C 7.988281 10.5 7.855469 10.375 7.855469 10.21875 Z M 4.714844 6.28125 C 4.714844 6.125 4.847656 6 5.007812 6 L 5.992188 6 C 6.152344 6 6.285156 6.125 6.285156 6.28125 L 6.285156 7.21875 C 6.285156 7.375 6.152344 7.5 5.992188 7.5 L 5.007812 7.5 C 4.847656 7.5 4.714844 7.375 4.714844 7.21875 Z M 4.714844 9.28125 C 4.714844 9.125 4.847656 9 5.007812 9 L 5.992188 9 C 6.152344 9 6.285156 9.125 6.285156 9.28125 L 6.285156 10.21875 C 6.285156 10.375 6.152344 10.5 5.992188 10.5 L 5.007812 10.5 C 4.847656 10.5 4.714844 10.375 4.714844 10.21875 Z M 1.570312 6.28125 C 1.570312 6.125 1.703125 6 1.867188 6 L 2.847656 6 C 3.011719 6 3.144531 6.125 3.144531 6.28125 L 3.144531 7.21875 C 3.144531 7.375 3.011719 7.5 2.847656 7.5 L 1.867188 7.5 C 1.703125 7.5 1.570312 7.375 1.570312 7.21875 Z M 1.570312 9.28125 C 1.570312 9.125 1.703125 9 1.867188 9 L 2.847656 9 C 3.011719 9 3.144531 9.125 3.144531 9.28125 L 3.144531 10.21875 C 3.144531 10.375 3.011719 10.5 2.847656 10.5 L 1.867188 10.5 C 1.703125 10.5 1.570312 10.375 1.570312 10.21875 Z M 9.820312 1.5 L 8.644531 1.5 L 8.644531 0.375 C 8.644531 0.167969 8.464844 0 8.25 0 L 7.464844 0 C 7.25 0 7.070312 0.167969 7.070312 0.375 L 7.070312 1.5 L 3.929688 1.5 L 3.929688 0.375 C 3.929688 0.167969 3.75 0 3.535156 0 L 2.75 0 C 2.535156 0 2.355469 0.167969 2.355469 0.375 L 2.355469 1.5 L 1.179688 1.5 C 0.527344 1.5 0 2.003906 0 2.625 L 0 3.75 L 11 3.75 L 11 2.625 C 11 2.003906 10.472656 1.5 9.820312 1.5 Z M 9.820312 1.5 "/>
</g>
</svg>
