<?xml version="1.0" encoding="UTF-8"?>
<svg xmlns="http://www.w3.org/2000/svg" xmlns:xlink="http://www.w3.org/1999/xlink" width="20pt" height="20pt" viewBox="0 0 20 20" version="1.1">
<g id="surface1">
<path style=" stroke:none;fill-rule:nonzero;fill:rgb(0%,0%,0%);fill-opacity:1;" d="M 16.421875 0 L 3.578125 0 C 1.605469 0 0 1.605469 0 3.578125 L 0 16.421875 C 0 18.394531 1.605469 20 3.578125 20 L 16.421875 20 C 18.394531 20 20 18.394531 20 16.421875 L 20 3.578125 C 20 1.605469 18.394531 0 16.421875 0 Z M 18.828125 16.421875 C 18.828125 17.75 17.75 18.828125 16.421875 18.828125 L 3.578125 18.828125 C 2.25 18.828125 1.171875 17.75 1.171875 16.421875 L 1.171875 3.578125 C 1.171875 2.25 2.25 1.171875 3.578125 1.171875 L 16.421875 1.171875 C 17.75 1.171875 18.828125 2.25 18.828125 3.578125 Z M 18.828125 16.421875 "/>
<path style=" stroke:none;fill-rule:nonzero;fill:rgb(0%,0%,0%);fill-opacity:1;" d="M 16.902344 4.394531 L 7.980469 4.394531 C 7.734375 3.664062 7.042969 3.136719 6.234375 3.136719 C 5.425781 3.136719 4.734375 3.664062 4.488281 4.394531 L 3.097656 4.394531 C 2.773438 4.394531 2.511719 4.65625 2.511719 4.980469 C 2.511719 5.304688 2.773438 5.566406 3.097656 5.566406 L 4.488281 5.566406 C 4.734375 6.292969 5.425781 6.820312 6.234375 6.820312 C 7.042969 6.820312 7.734375 6.292969 7.980469 5.566406 L 16.902344 5.566406 C 17.226562 5.566406 17.488281 5.304688 17.488281 4.980469 C 17.488281 4.65625 17.226562 4.394531 16.902344 4.394531 Z M 6.234375 5.648438 C 5.867188 5.648438 5.566406 5.347656 5.566406 4.980469 C 5.566406 4.609375 5.867188 4.308594 6.234375 4.308594 C 6.601562 4.308594 6.902344 4.609375 6.902344 4.980469 C 6.902344 5.347656 6.601562 5.648438 6.234375 5.648438 Z M 6.234375 5.648438 "/>
<path style=" stroke:none;fill-rule:nonzero;fill:rgb(0%,0%,0%);fill-opacity:1;" d="M 16.902344 9.414062 L 15.511719 9.414062 C 15.265625 8.683594 14.574219 8.160156 13.765625 8.160156 C 12.957031 8.160156 12.265625 8.683594 12.019531 9.414062 L 3.097656 9.414062 C 2.773438 9.414062 2.511719 9.675781 2.511719 10 C 2.511719 10.324219 2.773438 10.585938 3.097656 10.585938 L 12.019531 10.585938 C 12.265625 11.316406 12.957031 11.839844 13.765625 11.839844 C 14.574219 11.839844 15.265625 11.316406 15.511719 10.585938 L 16.902344 10.585938 C 17.226562 10.585938 17.488281 10.324219 17.488281 10 C 17.488281 9.675781 17.226562 9.414062 16.902344 9.414062 Z M 13.765625 10.667969 C 13.398438 10.667969 13.097656 10.367188 13.097656 10 C 13.097656 9.632812 13.398438 9.332031 13.765625 9.332031 C 14.132812 9.332031 14.433594 9.632812 14.433594 10 C 14.433594 10.367188 14.132812 10.667969 13.765625 10.667969 Z M 13.765625 10.667969 "/>
<path style=" stroke:none;fill-rule:nonzero;fill:rgb(0%,0%,0%);fill-opacity:1;" d="M 16.902344 14.433594 L 10.488281 14.433594 C 10.246094 13.707031 9.554688 13.179688 8.746094 13.179688 C 7.933594 13.179688 7.246094 13.707031 7 14.433594 L 3.097656 14.433594 C 2.773438 14.433594 2.511719 14.695312 2.511719 15.019531 C 2.511719 15.34375 2.773438 15.605469 3.097656 15.605469 L 7 15.605469 C 7.246094 16.335938 7.933594 16.863281 8.746094 16.863281 C 9.554688 16.863281 10.246094 16.335938 10.488281 15.605469 L 16.902344 15.605469 C 17.226562 15.605469 17.488281 15.34375 17.488281 15.019531 C 17.488281 14.695312 17.226562 14.433594 16.902344 14.433594 Z M 8.746094 15.691406 C 8.375 15.691406 8.074219 15.390625 8.074219 15.019531 C 8.074219 14.652344 8.375 14.351562 8.746094 14.351562 C 9.113281 14.351562 9.414062 14.652344 9.414062 15.019531 C 9.414062 15.390625 9.113281 15.691406 8.746094 15.691406 Z M 8.746094 15.691406 "/>
</g>
</svg>
